<mxfile host="app.diagrams.net" modified="2022-09-27T02:05:59.934Z" agent="5.0 (Windows NT 10.0; Win64; x64) AppleWebKit/537.36 (KHTML, like Gecko) Chrome/105.0.0.0 Safari/537.36" etag="dnVtaTawbUAW18OrQUB2" version="20.3.6" type="github">
  <diagram name="Page-1" id="b5b7bab2-c9e2-2cf4-8b2a-24fd1a2a6d21">
    <mxGraphModel dx="2595" dy="1283" grid="1" gridSize="10" guides="1" tooltips="1" connect="1" arrows="1" fold="1" page="1" pageScale="1" pageWidth="827" pageHeight="1169" background="none" math="0" shadow="0">
      <root>
        <mxCell id="0" />
        <mxCell id="1" parent="0" />
        <mxCell id="C3260vWVcp80WVeksF_g-1" value="«Componente»&lt;br&gt;&lt;b&gt;App&amp;nbsp;Móvil&lt;/b&gt;" style="html=1;dropTarget=0;fillColor=#dae8fc;gradientColor=#7ea6e0;strokeColor=#6c8ebf;" vertex="1" parent="1">
          <mxGeometry x="90" y="460" width="180" height="90" as="geometry" />
        </mxCell>
        <mxCell id="C3260vWVcp80WVeksF_g-2" value="" style="shape=module;jettyWidth=8;jettyHeight=4;" vertex="1" parent="C3260vWVcp80WVeksF_g-1">
          <mxGeometry x="1" width="20" height="20" relative="1" as="geometry">
            <mxPoint x="-27" y="7" as="offset" />
          </mxGeometry>
        </mxCell>
        <mxCell id="C3260vWVcp80WVeksF_g-3" value="«Componente»&lt;br&gt;&lt;b&gt;Dispensador&lt;/b&gt;" style="html=1;dropTarget=0;fillColor=#d5e8d4;gradientColor=#97d077;strokeColor=#82b366;" vertex="1" parent="1">
          <mxGeometry x="90" y="620" width="180" height="90" as="geometry" />
        </mxCell>
        <mxCell id="C3260vWVcp80WVeksF_g-4" value="" style="shape=module;jettyWidth=8;jettyHeight=4;" vertex="1" parent="C3260vWVcp80WVeksF_g-3">
          <mxGeometry x="1" width="20" height="20" relative="1" as="geometry">
            <mxPoint x="-27" y="7" as="offset" />
          </mxGeometry>
        </mxCell>
        <mxCell id="C3260vWVcp80WVeksF_g-5" value="" style="rounded=1;whiteSpace=wrap;html=1;fillColor=#B5FDFF;strokeColor=#B5FDFF;gradientColor=#EBFFFE;" vertex="1" parent="1">
          <mxGeometry x="490" y="445" width="1030" height="280" as="geometry" />
        </mxCell>
        <mxCell id="C3260vWVcp80WVeksF_g-7" value="«Componente»&lt;br&gt;&lt;b&gt;Endpoints&lt;/b&gt;" style="html=1;dropTarget=0;fillColor=#AD031A;gradientColor=#EA1010;strokeColor=#b85450;gradientDirection=north;fontColor=#FFFFFF;" vertex="1" parent="1">
          <mxGeometry x="540" y="540" width="180" height="90" as="geometry" />
        </mxCell>
        <mxCell id="C3260vWVcp80WVeksF_g-8" value="" style="shape=module;jettyWidth=8;jettyHeight=4;" vertex="1" parent="C3260vWVcp80WVeksF_g-7">
          <mxGeometry x="1" width="20" height="20" relative="1" as="geometry">
            <mxPoint x="-27" y="7" as="offset" />
          </mxGeometry>
        </mxCell>
        <mxCell id="C3260vWVcp80WVeksF_g-9" value="«Componente»&lt;br&gt;&lt;b&gt;App engine&lt;/b&gt;" style="html=1;dropTarget=0;fillColor=#3333FF;gradientColor=#0E0E45;strokeColor=#6c8ebf;fontColor=#FFFFFF;" vertex="1" parent="1">
          <mxGeometry x="880" y="540" width="180" height="90" as="geometry" />
        </mxCell>
        <mxCell id="C3260vWVcp80WVeksF_g-10" value="" style="shape=module;jettyWidth=8;jettyHeight=4;" vertex="1" parent="C3260vWVcp80WVeksF_g-9">
          <mxGeometry x="1" width="20" height="20" relative="1" as="geometry">
            <mxPoint x="-27" y="7" as="offset" />
          </mxGeometry>
        </mxCell>
        <mxCell id="C3260vWVcp80WVeksF_g-11" value="«Componente»&lt;br&gt;&lt;b&gt;BD&lt;/b&gt;" style="html=1;dropTarget=0;fillColor=#FFFF33;gradientColor=#7D7D00;strokeColor=#d6b656;gradientDirection=south;" vertex="1" parent="1">
          <mxGeometry x="1250" y="539" width="180" height="90" as="geometry" />
        </mxCell>
        <mxCell id="C3260vWVcp80WVeksF_g-12" value="" style="shape=module;jettyWidth=8;jettyHeight=4;" vertex="1" parent="C3260vWVcp80WVeksF_g-11">
          <mxGeometry x="1" width="20" height="20" relative="1" as="geometry">
            <mxPoint x="-27" y="7" as="offset" />
          </mxGeometry>
        </mxCell>
        <mxCell id="C3260vWVcp80WVeksF_g-16" value="" style="whiteSpace=wrap;html=1;aspect=fixed;" vertex="1" parent="1">
          <mxGeometry x="271" y="488.75" width="32.5" height="32.5" as="geometry" />
        </mxCell>
        <mxCell id="C3260vWVcp80WVeksF_g-17" value="" style="whiteSpace=wrap;html=1;aspect=fixed;" vertex="1" parent="1">
          <mxGeometry x="270" y="648.75" width="32.5" height="32.5" as="geometry" />
        </mxCell>
        <mxCell id="C3260vWVcp80WVeksF_g-18" value="" style="whiteSpace=wrap;html=1;aspect=fixed;" vertex="1" parent="1">
          <mxGeometry x="507.5" y="540" width="32.5" height="32.5" as="geometry" />
        </mxCell>
        <mxCell id="C3260vWVcp80WVeksF_g-20" value="" style="whiteSpace=wrap;html=1;aspect=fixed;" vertex="1" parent="1">
          <mxGeometry x="507.5" y="597.5" width="32.5" height="32.5" as="geometry" />
        </mxCell>
        <mxCell id="C3260vWVcp80WVeksF_g-21" value="" style="rounded=0;orthogonalLoop=1;jettySize=auto;html=1;endArrow=none;endFill=0;sketch=0;sourcePerimeterSpacing=0;targetPerimeterSpacing=0;exitX=0;exitY=0.5;exitDx=0;exitDy=0;" edge="1" parent="1" source="C3260vWVcp80WVeksF_g-20">
          <mxGeometry relative="1" as="geometry">
            <mxPoint x="800" y="685" as="sourcePoint" />
            <mxPoint x="460" y="614" as="targetPoint" />
          </mxGeometry>
        </mxCell>
        <mxCell id="C3260vWVcp80WVeksF_g-22" value="" style="rounded=0;orthogonalLoop=1;jettySize=auto;html=1;endArrow=halfCircle;endFill=0;endSize=6;strokeWidth=1;sketch=0;exitX=1;exitY=0.5;exitDx=0;exitDy=0;" edge="1" parent="1" source="C3260vWVcp80WVeksF_g-16">
          <mxGeometry relative="1" as="geometry">
            <mxPoint x="840" y="685" as="sourcePoint" />
            <mxPoint x="330" y="505" as="targetPoint" />
          </mxGeometry>
        </mxCell>
        <mxCell id="C3260vWVcp80WVeksF_g-23" value="" style="ellipse;whiteSpace=wrap;html=1;align=center;aspect=fixed;resizable=0;points=[];outlineConnect=0;sketch=0;" vertex="1" parent="1">
          <mxGeometry x="450" y="608.75" width="10" height="10" as="geometry" />
        </mxCell>
        <mxCell id="C3260vWVcp80WVeksF_g-24" value="" style="rounded=0;orthogonalLoop=1;jettySize=auto;html=1;endArrow=halfCircle;endFill=0;endSize=6;strokeWidth=1;sketch=0;exitX=1;exitY=0.5;exitDx=0;exitDy=0;" edge="1" parent="1">
          <mxGeometry relative="1" as="geometry">
            <mxPoint x="302.5" y="664.85" as="sourcePoint" />
            <mxPoint x="329" y="664.85" as="targetPoint" />
          </mxGeometry>
        </mxCell>
        <mxCell id="C3260vWVcp80WVeksF_g-25" value="" style="rounded=0;orthogonalLoop=1;jettySize=auto;html=1;endArrow=none;endFill=0;sketch=0;sourcePerimeterSpacing=0;targetPerimeterSpacing=0;exitX=0;exitY=0.5;exitDx=0;exitDy=0;" edge="1" parent="1">
          <mxGeometry relative="1" as="geometry">
            <mxPoint x="507.5" y="556.25" as="sourcePoint" />
            <mxPoint x="460" y="556.5" as="targetPoint" />
          </mxGeometry>
        </mxCell>
        <mxCell id="C3260vWVcp80WVeksF_g-26" value="" style="ellipse;whiteSpace=wrap;html=1;align=center;aspect=fixed;resizable=0;points=[];outlineConnect=0;sketch=0;" vertex="1" parent="1">
          <mxGeometry x="450" y="551.25" width="10" height="10" as="geometry" />
        </mxCell>
        <mxCell id="C3260vWVcp80WVeksF_g-27" value="Http" style="endArrow=open;endSize=12;dashed=1;html=1;rounded=0;entryX=0;entryY=1.125;entryDx=0;entryDy=0;entryPerimeter=0;" edge="1" parent="1" target="C3260vWVcp80WVeksF_g-23">
          <mxGeometry x="0.0541" y="20" width="160" relative="1" as="geometry">
            <mxPoint x="330" y="660" as="sourcePoint" />
            <mxPoint x="440" y="610" as="targetPoint" />
            <Array as="points">
              <mxPoint x="400" y="660" />
            </Array>
            <mxPoint as="offset" />
          </mxGeometry>
        </mxCell>
        <mxCell id="C3260vWVcp80WVeksF_g-28" value="Http" style="endArrow=open;endSize=12;dashed=1;html=1;rounded=0;" edge="1" parent="1" target="C3260vWVcp80WVeksF_g-26">
          <mxGeometry x="0.0541" y="20" width="160" relative="1" as="geometry">
            <mxPoint x="330" y="500" as="sourcePoint" />
            <mxPoint x="340" y="500" as="targetPoint" />
            <Array as="points">
              <mxPoint x="410" y="500" />
            </Array>
            <mxPoint as="offset" />
          </mxGeometry>
        </mxCell>
        <mxCell id="C3260vWVcp80WVeksF_g-30" value="" style="whiteSpace=wrap;html=1;aspect=fixed;" vertex="1" parent="1">
          <mxGeometry x="720" y="568.75" width="32.5" height="32.5" as="geometry" />
        </mxCell>
        <mxCell id="C3260vWVcp80WVeksF_g-31" value="" style="rounded=0;orthogonalLoop=1;jettySize=auto;html=1;endArrow=halfCircle;endFill=0;endSize=6;strokeWidth=1;sketch=0;exitX=1;exitY=0.5;exitDx=0;exitDy=0;" edge="1" parent="1">
          <mxGeometry relative="1" as="geometry">
            <mxPoint x="752.5" y="584.8499999999999" as="sourcePoint" />
            <mxPoint x="779" y="584.8499999999999" as="targetPoint" />
          </mxGeometry>
        </mxCell>
        <mxCell id="C3260vWVcp80WVeksF_g-34" value="" style="whiteSpace=wrap;html=1;aspect=fixed;" vertex="1" parent="1">
          <mxGeometry x="1060" y="568.75" width="32.5" height="32.5" as="geometry" />
        </mxCell>
        <mxCell id="C3260vWVcp80WVeksF_g-35" value="" style="rounded=0;orthogonalLoop=1;jettySize=auto;html=1;endArrow=halfCircle;endFill=0;endSize=6;strokeWidth=1;sketch=0;exitX=1;exitY=0.5;exitDx=0;exitDy=0;" edge="1" parent="1">
          <mxGeometry relative="1" as="geometry">
            <mxPoint x="1092.5" y="584.8499999999999" as="sourcePoint" />
            <mxPoint x="1119" y="584.8499999999999" as="targetPoint" />
          </mxGeometry>
        </mxCell>
        <mxCell id="C3260vWVcp80WVeksF_g-39" value="" style="whiteSpace=wrap;html=1;aspect=fixed;" vertex="1" parent="1">
          <mxGeometry x="847.5" y="568.75" width="32.5" height="32.5" as="geometry" />
        </mxCell>
        <mxCell id="C3260vWVcp80WVeksF_g-40" value="" style="rounded=0;orthogonalLoop=1;jettySize=auto;html=1;endArrow=none;endFill=0;sketch=0;sourcePerimeterSpacing=0;targetPerimeterSpacing=0;exitX=0;exitY=0.5;exitDx=0;exitDy=0;" edge="1" source="C3260vWVcp80WVeksF_g-39" parent="1">
          <mxGeometry relative="1" as="geometry">
            <mxPoint x="1140" y="656.25" as="sourcePoint" />
            <mxPoint x="830" y="585" as="targetPoint" />
          </mxGeometry>
        </mxCell>
        <mxCell id="C3260vWVcp80WVeksF_g-41" value="" style="ellipse;whiteSpace=wrap;html=1;align=center;aspect=fixed;resizable=0;points=[];outlineConnect=0;sketch=0;" vertex="1" parent="1">
          <mxGeometry x="827" y="580" width="10" height="10" as="geometry" />
        </mxCell>
        <mxCell id="C3260vWVcp80WVeksF_g-42" value="" style="whiteSpace=wrap;html=1;aspect=fixed;" vertex="1" parent="1">
          <mxGeometry x="1217.5" y="567.75" width="32.5" height="32.5" as="geometry" />
        </mxCell>
        <mxCell id="C3260vWVcp80WVeksF_g-43" value="" style="rounded=0;orthogonalLoop=1;jettySize=auto;html=1;endArrow=none;endFill=0;sketch=0;sourcePerimeterSpacing=0;targetPerimeterSpacing=0;exitX=0;exitY=0.5;exitDx=0;exitDy=0;" edge="1" source="C3260vWVcp80WVeksF_g-42" parent="1">
          <mxGeometry relative="1" as="geometry">
            <mxPoint x="1440" y="655.25" as="sourcePoint" />
            <mxPoint x="1200" y="584" as="targetPoint" />
          </mxGeometry>
        </mxCell>
        <mxCell id="C3260vWVcp80WVeksF_g-44" value="" style="ellipse;whiteSpace=wrap;html=1;align=center;aspect=fixed;resizable=0;points=[];outlineConnect=0;sketch=0;" vertex="1" parent="1">
          <mxGeometry x="1190" y="580" width="10" height="10" as="geometry" />
        </mxCell>
        <mxCell id="C3260vWVcp80WVeksF_g-48" value="" style="endArrow=open;endSize=12;dashed=1;html=1;rounded=0;" edge="1" parent="1" target="C3260vWVcp80WVeksF_g-41">
          <mxGeometry x="0.0541" y="20" width="160" relative="1" as="geometry">
            <mxPoint x="772" y="584" as="sourcePoint" />
            <mxPoint x="892" y="544" as="targetPoint" />
            <Array as="points">
              <mxPoint x="790" y="584" />
            </Array>
            <mxPoint as="offset" />
          </mxGeometry>
        </mxCell>
        <mxCell id="C3260vWVcp80WVeksF_g-50" value="" style="endArrow=open;endSize=12;dashed=1;html=1;rounded=0;" edge="1" parent="1" target="C3260vWVcp80WVeksF_g-44">
          <mxGeometry x="0.0541" y="20" width="160" relative="1" as="geometry">
            <mxPoint x="1110" y="584.5" as="sourcePoint" />
            <mxPoint x="1165" y="585.5" as="targetPoint" />
            <Array as="points">
              <mxPoint x="1128" y="584.5" />
            </Array>
            <mxPoint as="offset" />
          </mxGeometry>
        </mxCell>
        <mxCell id="C3260vWVcp80WVeksF_g-56" value="&lt;font color=&quot;#000033&quot;&gt;Nube&lt;/font&gt;" style="html=1;strokeColor=#B5FDFF;fontColor=#FFFFFF;fillColor=#B5FDFF;gradientColor=#B5FDFF;gradientDirection=south;" vertex="1" parent="1">
          <mxGeometry x="915" y="445" width="110" height="50" as="geometry" />
        </mxCell>
      </root>
    </mxGraphModel>
  </diagram>
</mxfile>
